<?xml version="1.0" standalone="no"?>
<!DOCTYPE svg PUBLIC "-//W3C//DTD SVG 20010904//EN"
 "http://www.w3.org/TR/2001/REC-SVG-20010904/DTD/svg10.dtd">
<svg version="1.0" xmlns="http://www.w3.org/2000/svg"
 width="700.000000pt" height="700.000000pt" viewBox="0 0 700.000000 700.000000"
 preserveAspectRatio="xMidYMid meet">
<metadata>
Created by Petr Svoboda, written by Petr Svoboda 2022-2023
</metadata>
<g transform="translate(0.000000,700.000000) scale(0.100000,-0.100000)"
fill="#000000" stroke="none">
<path d="M1169 5807 c-2 -12 -4 -942 -3 -2067 1 -1572 4 -2059 13 -2105 7 -33
31 -98 53 -144 72 -151 226 -272 398 -312 44 -10 482 -13 2113 -13 1132 -1
2063 1 2070 4 7 3 -129 147 -324 342 l-337 337 -150 -150 c-82 -82 -153 -149
-158 -149 -9 0 -144 129 -188 179 l-19 21 139 139 c76 76 145 145 152 154 12
13 -23 52 -269 298 l-281 282 -152 -152 c-83 -83 -154 -151 -158 -151 -9 0
-198 190 -198 200 0 4 68 75 151 158 l151 150 -281 281 c-154 154 -283 281
-286 281 -4 0 -74 -68 -157 -150 -130 -131 -152 -149 -166 -138 -9 7 -55 53
-104 103 l-88 90 150 150 c83 83 150 154 150 158 0 4 -126 133 -280 287 l-280
281 -155 -154 -155 -155 -100 101 c-55 55 -100 103 -100 106 0 3 68 74 151
157 l151 151 -282 283 -282 282 -60 -58 c-33 -33 -101 -101 -151 -151 -50 -51
-94 -93 -98 -93 -3 0 -52 46 -107 101 l-102 102 155 153 155 154 -339 339
c-278 279 -340 336 -342 318z m2491 -3703 l59 -61 -837 1 -837 1 -1 839 -2
838 779 -778 c429 -429 806 -806 839 -840z"/>
</g>
</svg>
